<svg xmlns="http://www.w3.org/2000/svg" viewBox="0 0 711 2449" width="711" height="2449">
	<style>
		tspan { white-space:pre }
		.shp0 { fill: #2c2e35 } 
		.shp1 { fill: none;stroke: #2c2e35;stroke-linecap:round;stroke-width: 4 } 
	</style>
	<g id="Layer 1">
		<g id="decoration 4 1 ">
			<g id="&lt;Group&gt;">
				<path id="&lt;Path&gt;" class="shp0" d="M189.82 846.87L38.76 844.87L189.82 842.87C190.92 842.85 191.83 843.74 191.85 844.84C191.86 845.94 190.98 846.85 189.87 846.87C189.86 846.87 189.83 846.87 189.82 846.87Z" />
			</g>
			<g id="&lt;Group&gt;">
				<path id="&lt;Path&gt;" class="shp0" d="M516.42 842.87L667.47 844.87L516.42 846.87C515.31 846.88 514.4 846 514.39 844.89C514.37 843.79 515.26 842.88 516.36 842.87C516.38 842.87 516.4 842.87 516.42 842.87Z" />
			</g>
			<path id="&lt;Path&gt;" class="shp1" d="M189.82 844.87L278.8 844.87C279.86 844.87 280.88 844.45 281.63 843.7L293.15 832.17C294.71 830.61 297.24 830.61 298.81 832.17L328.46 861.83C330.02 863.39 332.55 863.39 334.12 861.83L348.96 846.98C350.52 845.42 350.52 842.89 348.96 841.33L339.48 831.85C337.92 830.29 335.39 830.29 333.82 831.85L324.98 840.69C323.42 842.25 323.42 844.79 324.98 846.35L327.63 848.99C329.19 850.56 331.72 850.56 333.28 848.99L336.11 846.16C337.68 844.6 337.68 842.07 336.11 840.5L326.67 831.06L320.16 824.56C318.6 822.99 316.07 822.99 314.51 824.56L302.85 836.22L296.29 842.77C294.72 844.34 294.73 846.89 296.31 848.45L297.75 849.86C299.31 851.4 301.83 851.4 303.38 849.84L331.14 822.08L343.17 810.06C344.73 808.5 347.26 808.5 348.82 810.06L359.66 820.89C361.22 822.45 361.22 824.99 359.66 826.55L353.12 833.09L346.58 826.55C345.01 824.99 345.01 822.45 346.58 820.89L357.41 810.06C358.97 808.5 361.51 808.5 363.07 810.06L375.09 822.08L402.85 849.84C404.4 851.4 406.92 851.4 408.49 849.86L409.92 848.45C411.5 846.89 411.51 844.34 409.94 842.77L403.39 836.22L391.73 824.56C390.17 822.99 387.63 822.99 386.07 824.56L379.56 831.06L370.12 840.5C368.56 842.07 368.56 844.6 370.12 846.16L372.95 848.99C374.52 850.56 377.05 850.56 378.61 848.99L381.25 846.35C382.82 844.79 382.82 842.25 381.25 840.69L372.41 831.85C370.85 830.29 368.32 830.29 366.75 831.85L357.28 841.33C355.71 842.89 355.71 845.42 357.28 846.98L372.12 861.83C373.68 863.39 376.21 863.39 377.78 861.83L407.43 832.17C408.99 830.61 411.52 830.61 413.09 832.17L424.61 843.7C425.36 844.45 426.38 844.87 427.44 844.87L516.42 844.87" />
		</g>
	</g>
</svg>