<svg xmlns="http://www.w3.org/2000/svg" viewBox="0 0 711 2449" width="711" height="2449">
	<style>
		tspan { white-space:pre }
		.shp0 { fill: none;stroke: #2c2e35;stroke-width: 4 } 
		.shp1 { fill: #2c2e35 } 
	</style>
	<g id="Layer 1">
		<g id="decoration 3 1 ">
			<path id="&lt;Path&gt;" class="shp0" d="M363 591.91L355.93 598.98L348.86 591.91L355.93 584.83L363 591.91Z" />
			<path id="&lt;Path&gt;" class="shp0" d="M371.16 641.88L355.93 657.12L340.69 641.88L355.93 626.65L371.16 641.88Z" />
			<g id="&lt;Group&gt;">
				<path id="&lt;Path&gt;" class="shp1" d="M645.72 620.66C640.69 620.87 635.65 620.97 630.61 621.13C625.57 621.25 620.53 621.35 615.49 621.42L600.38 621.59L585.27 621.65L584.44 621.66L583.85 621.07L577.96 615.18L580.79 615.18L564.23 631.76L562.81 633.18L561.39 631.76L550.85 621.23L553.7 621.23L548.76 626.18L548.76 623.32L553.56 628.12L550.69 628.12L560.26 618.54L560.26 621.42L550.36 611.52L553.24 611.52L543.67 621.09L543.07 621.69L542.23 621.69L434.81 621.74L436.28 621.13L420.77 636.66L419.29 638.14L417.8 636.66L372.62 591.51L350.03 568.93L349.42 568.44L349.33 568.37L349.28 568.36L349.19 568.33C349.14 568.31 349.09 568.29 349.04 568.25C348.9 568.2 348.68 568.16 348.52 568.09C348.33 568.06 348.14 568.06 347.95 568.03C347.17 568.02 346.44 568.33 345.88 568.89L340.23 574.54L328.95 585.84L328.95 582.8L380.15 633.96L377.07 633.96L391.57 619.46L391.57 622.54L377.27 608.27L380.38 608.27L371.89 616.76L371.89 613.65L399.49 641.23L396.36 641.23L425.33 612.24L425.33 615.39L404.2 594.29L407.38 594.29L400.39 601.28L400.4 598.11L414.35 612.23L415.92 613.83L414.33 615.41L386.11 643.66L371.99 657.79L364.94 664.85L361.41 668.38L360.97 668.82L360.75 669.04L360.69 669.1L360.46 669.31L360.34 669.4C359.98 669.68 359.83 669.89 359.1 670.29C358.79 670.46 358.47 670.64 358.17 670.76L357.3 671.03C356.72 671.22 356.1 671.21 355.5 671.27C354.3 671.21 353.07 670.99 352.02 670.36C351.46 670.1 351.01 669.69 350.54 669.31C350.27 669.08 350.2 668.98 350.03 668.82L349.59 668.38L346.06 664.85L339.01 657.79L324.89 643.66L296.67 615.41L295.08 613.83L296.65 612.23L310.6 598.11L310.61 601.28L303.62 594.29L306.8 594.29L285.67 615.39L285.67 612.24L314.64 641.23L311.51 641.23L339.11 613.65L339.11 616.76L330.62 608.27L333.73 608.27L319.43 622.54L319.43 619.46L333.93 633.96L330.85 633.96L382.05 582.8L382.05 585.84L370.77 574.54L365.12 568.89C364 567.73 362.11 567.74 360.97 568.93L338.38 591.51L293.2 636.66L291.71 638.14L290.23 636.66L274.72 621.13L276.19 621.74L168.77 621.69L167.93 621.69L167.33 621.09L157.76 611.52L160.64 611.52L150.74 621.42L150.74 618.54L160.31 628.12L157.44 628.12L162.24 623.32L162.24 626.18L157.3 621.23L160.15 621.23L149.61 631.76L148.19 633.18L146.77 631.76L130.21 615.18L133.04 615.18L127.15 621.07L126.56 621.66L125.73 621.65L110.62 621.59L95.51 621.42C90.47 621.35 85.43 621.25 80.39 621.13C75.35 620.97 70.31 620.87 65.28 620.66C64.72 620.63 64.3 620.16 64.32 619.61C64.34 619.09 64.77 618.68 65.28 618.66C70.31 618.44 75.35 618.34 80.39 618.18C85.43 618.06 90.47 617.96 95.51 617.89L110.62 617.72L125.73 617.66L124.32 618.24L130.21 612.35L131.62 610.93L133.04 612.35L149.61 628.91L146.77 628.91L157.3 618.37L158.72 616.95L160.15 618.37L165.1 623.32L166.53 624.75L165.1 626.18L160.31 630.98L158.88 632.41L157.44 630.98L147.87 621.42L146.43 619.98L147.87 618.54L157.76 608.64L159.2 607.2L160.64 608.64L170.22 618.21L168.77 617.61L276.19 617.57L277.06 617.57L277.67 618.18L293.2 633.69L290.23 633.69L335.38 588.51L357.96 565.92C359.22 564.62 361.14 563.75 363.03 563.76C363.5 563.78 363.97 563.83 364.44 563.89C364.9 564.01 365.35 564.13 365.81 564.3C366.29 564.53 366.82 564.83 367.22 565.09L367.6 565.41L367.8 565.56L367.89 565.64L367.94 565.68L368.15 565.87L373.79 571.51L385.09 582.8L386.61 584.32L385.09 585.84L333.93 637.04L332.39 638.58L330.85 637.04L316.35 622.54L314.8 621L316.35 619.46L330.62 605.16L332.17 603.61L333.73 605.16L342.22 613.65L343.77 615.2L342.22 616.76L314.64 644.36L313.07 645.92L311.51 644.36L282.52 615.39L280.94 613.82L282.52 612.24L303.62 591.12L305.21 589.53L306.8 591.12L313.79 598.1L315.37 599.68L313.8 601.27L299.86 615.4L299.85 612.22L328.1 640.45L342.23 654.56L349.29 661.62L352.82 665.15L353.26 665.59C353.4 665.72 353.59 665.93 353.66 665.96C353.85 666.09 353.99 666.28 354.21 666.35C354.59 666.61 355.06 666.64 355.5 666.7C355.72 666.63 355.96 666.7 356.17 666.6C356.27 666.56 356.38 666.53 356.49 666.51C356.58 666.47 356.61 666.43 356.67 666.42C356.72 666.49 357.16 666.1 357.45 665.86L357.57 665.76C357.74 665.62 357.39 665.94 357.43 665.89L357.46 665.86L357.51 665.81L357.74 665.59L358.18 665.15L361.71 661.62L368.77 654.56L382.9 640.45L411.15 612.22L411.14 615.4L397.2 601.27L395.63 599.68L397.21 598.1L404.2 591.12L405.79 589.53L407.38 591.12L428.48 612.24L430.06 613.82L428.48 615.39L399.49 644.36L397.93 645.92L396.36 644.36L368.78 616.76L367.23 615.2L368.78 613.65L377.27 605.16L378.83 603.61L380.38 605.16L394.65 619.46L396.2 621L394.65 622.54L380.15 637.04L378.61 638.58L377.07 637.04L325.91 585.84L324.39 584.32L325.91 582.8L337.21 571.51L342.85 565.87C344.16 564.54 346.08 563.72 347.97 563.76C348.44 563.8 348.92 563.82 349.39 563.91C349.85 564.05 350.29 564.15 350.76 564.35C351.01 564.47 351.25 564.6 351.49 564.74L351.84 564.95L352.02 565.05L352.12 565.13L352.51 565.45L352.7 565.61L352.8 565.69L353 565.87L353.04 565.92L375.62 588.51L420.77 633.69L417.8 633.69L433.33 618.18L433.94 617.57L434.81 617.57L542.23 617.61L540.78 618.21L550.36 608.64L551.8 607.2L553.24 608.64L563.13 618.54L564.57 619.98L563.13 621.42L553.56 630.98L552.12 632.41L550.69 630.98L545.9 626.18L544.47 624.75L545.9 623.32L550.85 618.37L552.28 616.95L553.7 618.37L564.23 628.91L561.39 628.91L577.96 612.35L579.38 610.93L580.79 612.35L586.68 618.24L585.27 617.66L600.38 617.72L615.49 617.89C620.53 617.96 625.57 618.06 630.61 618.18C635.65 618.34 640.69 618.44 645.72 618.66C646.28 618.68 646.7 619.15 646.68 619.7C646.66 620.22 646.23 620.63 645.72 620.66Z" />
			</g>
		</g>
	</g>
</svg>